<?xml version="1.0" standalone="no"?>
<!DOCTYPE svg PUBLIC "-//W3C//DTD SVG 20010904//EN"
 "http://www.w3.org/TR/2001/REC-SVG-20010904/DTD/svg10.dtd">
<svg version="1.0" xmlns="http://www.w3.org/2000/svg"
 width="789.000000pt" height="1272.000000pt" viewBox="0 0 789.000000 1272.000000"
 preserveAspectRatio="xMidYMid meet">

<g transform="translate(0.000000,1272.000000) scale(0.100000,-0.100000)"
fill="#000000" stroke="none">
<path d="M4105 12694 c-277 -42 -537 -146 -743 -297 -30 -21 -52 -41 -49 -43
2 -3 33 12 67 32 156 91 364 170 554 210 152 32 439 44 592 24 259 -32 467
-139 564 -290 18 -28 43 -84 56 -125 13 -41 69 -321 125 -622 56 -302 106
-552 111 -558 6 -6 8 10 4 45 -3 30 -18 161 -31 290 -33 298 -90 699 -116 813
-30 128 -79 218 -163 303 -160 159 -395 235 -726 233 -85 -1 -195 -7 -245 -15z"/>
<path d="M1082 12280 c-104 -37 -175 -107 -208 -204 -24 -70 -15 -198 21 -301
25 -71 183 -433 221 -507 39 -75 16 0 -75 250 -110 299 -125 358 -119 460 3
55 10 79 33 118 75 121 245 164 416 105 136 -46 270 -128 574 -349 204 -148
275 -193 640 -401 271 -154 707 -415 810 -484 111 -75 269 -190 615 -447 691
-514 988 -704 1342 -859 385 -169 666 -224 872 -171 104 26 164 61 235 134
141 147 175 340 83 479 -36 55 -44 45 -12 -15 51 -96 47 -189 -12 -306 -59
-118 -177 -207 -305 -232 -95 -19 -268 -8 -386 24 -138 37 -333 116 -537 217
-294 146 -596 336 -1085 683 -504 357 -665 462 -1118 723 -340 197 -671 395
-812 488 -48 32 -178 130 -289 218 -300 240 -466 341 -622 381 -84 22 -215 20
-282 -4z"/>
<path d="M3197 11698 c177 -238 413 -474 658 -658 250 -187 439 -297 648 -374
142 -53 377 -114 377 -97 0 3 -78 42 -173 85 -189 87 -543 270 -665 342 -260
157 -583 423 -762 628 -41 47 -79 86 -84 86 -5 0 -4 -6 1 -12z"/>
<path d="M2375 10954 c-214 -30 -417 -90 -571 -167 -168 -84 -298 -180 -445
-326 -189 -190 -306 -354 -428 -599 -171 -342 -263 -700 -315 -1217 -9 -82
-23 -210 -31 -284 -19 -165 -13 -221 46 -376 46 -121 55 -211 29 -275 -72
-178 -238 -215 -353 -79 -46 53 -67 116 -67 195 0 75 -10 84 -90 84 -43 0 -56
-5 -80 -28 -48 -48 -54 -92 -55 -372 0 -292 6 -332 80 -485 94 -195 239 -298
440 -311 293 -21 573 179 730 520 44 95 129 341 165 481 43 168 46 225 16 397
-14 81 -26 178 -26 216 0 99 25 230 64 333 116 310 365 523 758 647 155 50
309 82 606 127 598 92 848 167 1091 329 88 58 262 221 260 242 0 5 -293 213
-652 462 -637 444 -653 454 -722 468 -67 15 -387 27 -450 18z"/>
<path d="M4093 9246 c10 -8 141 -78 292 -156 314 -163 354 -194 424 -329 76
-146 108 -316 136 -731 18 -263 27 -329 59 -465 47 -193 119 -327 250 -463 69
-71 201 -170 213 -159 3 3 -21 37 -54 74 -156 178 -232 332 -278 556 -13 67
-45 273 -70 457 -51 370 -72 482 -117 609 -54 156 -135 274 -234 342 -42 28
-607 279 -628 279 -6 0 -3 -7 7 -14z"/>
<path d="M6056 9149 c-3 -8 -12 -81 -21 -164 -32 -286 -106 -821 -131 -945
-64 -313 -194 -682 -350 -993 -30 -60 -54 -116 -52 -125 4 -21 186 291 263
452 109 227 193 457 260 711 84 317 107 526 87 783 -16 196 -41 326 -56 281z"/>
<path d="M2486 8648 c-3 -7 -7 -46 -10 -86 -17 -200 -148 -447 -316 -592 -76
-66 -207 -145 -278 -167 l-55 -17 7 -296 c3 -162 11 -511 16 -775 5 -264 13
-567 16 -674 l6 -194 182 6 c477 17 1063 115 1606 268 80 23 153 45 163 51 11
6 17 21 17 46 0 116 72 265 180 373 66 67 92 84 220 149 238 120 318 186 361
299 64 170 20 364 -142 618 -129 203 -224 361 -268 443 -38 72 -46 96 -51 160
-7 104 -25 105 -69 3 -71 -167 -204 -381 -349 -562 -153 -191 -420 -437 -649
-599 l-72 -52 -51 86 c-109 184 -226 436 -294 633 -86 246 -124 452 -133 704
-5 150 -9 187 -20 187 -7 0 -15 -6 -17 -12z m29 -433 c44 -281 153 -593 309
-890 79 -150 165 -295 174 -295 15 0 257 180 361 269 132 112 340 323 434 441
95 120 188 259 250 378 l54 103 12 -43 c24 -77 93 -198 292 -504 147 -226 194
-354 187 -504 -8 -170 -80 -256 -316 -379 -171 -90 -253 -150 -311 -227 -78
-105 -131 -243 -131 -344 0 -38 -1 -39 -55 -55 -30 -8 -119 -31 -197 -50 -546
-131 -1037 -204 -1495 -222 l-173 -6 0 164 c0 90 -5 346 -10 569 -5 223 -12
567 -16 766 l-7 360 76 36 c42 20 104 56 139 79 81 55 203 176 258 258 45 67
113 205 126 256 9 34 7 45 39 -160z"/>
<path d="M3895 5879 c-582 -183 -1131 -282 -1807 -325 -92 -6 -98 -7 -97 -27
1 -17 2 -18 6 -4 2 9 8 17 11 17 4 0 95 5 202 10 577 31 1135 129 1712 303
l178 54 152 -62 c205 -82 277 -115 449 -201 1139 -569 2094 -1544 2627 -2681
153 -326 233 -574 371 -1158 34 -143 78 -322 97 -398 20 -76 33 -141 30 -145
-4 -3 -164 -26 -356 -52 -192 -25 -352 -49 -355 -52 -3 -3 1 -31 10 -64 62
-239 -88 -528 -357 -687 -80 -48 -223 -94 -352 -114 -128 -19 -383 -12 -576
16 -283 42 -1562 252 -1705 281 -182 36 -300 46 -380 31 -95 -17 -209 -81
-396 -221 -128 -96 -206 -146 -294 -189 -511 -251 -1068 -233 -1463 47 -102
72 -162 161 -198 293 -14 50 -18 101 -18 229 0 155 8 223 127 1100 189 1400
468 3521 465 3539 -5 26 -609 -4277 -629 -4488 -27 -269 20 -487 131 -613 83
-94 252 -195 417 -248 297 -96 618 -88 953 21 198 65 347 151 585 335 125 97
242 159 330 175 75 14 180 6 345 -26 172 -34 1645 -280 1800 -301 189 -26 456
-24 588 5 191 40 314 100 435 211 175 161 267 378 237 564 -6 38 -9 71 -6 73
3 3 166 25 363 50 197 25 359 46 359 46 1 1 -22 97 -51 212 -29 116 -81 327
-115 470 -127 528 -204 766 -352 1078 -219 464 -495 891 -834 1287 -139 162
-484 506 -644 640 -395 332 -816 603 -1270 815 -162 75 -467 200 -510 208 -15
3 -104 -20 -215 -54z"/>
<path d="M1982 5470 c0 -19 2 -27 5 -17 2 9 2 25 0 35 -3 9 -5 1 -5 -18z"/>
</g>
</svg>
